<?xml version="1.0" encoding="utf-8"?>
<!-- Generator: Adobe Illustrator 27.1.1, SVG Export Plug-In . SVG Version: 6.00 Build 0)  -->
<svg version="1.1" id="Layer_1" xmlns="http://www.w3.org/2000/svg" xmlns:xlink="http://www.w3.org/1999/xlink" x="0px" y="0px"
	 viewBox="0 0 110.22 109.44" style="enable-background:new 0 0 110.22 109.44;" xml:space="preserve">
<style type="text/css">
	.st0{fill-rule:evenodd;clip-rule:evenodd;fill:#D94C17;}
	.st1{fill-rule:evenodd;clip-rule:evenodd;fill:#F76B42;}
	.st2{fill-rule:evenodd;clip-rule:evenodd;fill:#1D1534;}
	.st3{fill:none;}
</style>
<path class="st0" d="M31.71,106.06c0.03,0.02,0.06,0.03,0.09,0.05c0.01-0.09,0.02-0.2,0.03-0.3L31.71,106.06z"/>
<path class="st1" d="M31.22,102.17c0.4-5.49-1.74-18.95-1.76-19.09l-0.14-0.88l0.87-0.2c0,0,1.63-0.45,3.29-3.07
	c1.83-2.89,3.17-7.97,3.19-8.02l0.26-1l0.98,0.35c1.31,0.46,2.61,0.92,3.92,1.37c2.37-11.31,7.44-31.17,15.88-44.68
	C66.95,12.13,76.82,7.57,81.27,6.2C69.43,0.1,55.38-1.81,41.49,1.87C11.72,9.76-6.02,40.29,1.88,70.05
	c4.27,16.12,15.19,28.69,29.03,35.6C31,104.77,31.11,103.63,31.22,102.17"/>
<path class="st2" d="M42.59,72.88c2.16-10.55,7.26-31.49,15.97-45.43C70.62,8.14,83.84,6.58,83.84,6.58
	c-15.78,8.41-24.49,24-30.4,40.28C61.19,31.93,73.18,10.03,90.5,4.99c0,0,1.72,7.16,0.24,10.92c-1.48,3.76-2.3,4.68-2.3,4.68
	s-6.13,0.92-10.94,4.14c-4.81,3.22-6.49,4.91-6.49,4.91s8.64-2.82,12.48-4.37c3.84-1.55,4.17-1.64,4.17-1.64l-3.91,5.29l-14.96,5.03
	l11.11-0.82c0,0-6.01,6.73-10.71,9.03c-4.7,2.31-6.6,3.17-9.79,6.49c-3.19,3.32-3.68,4.16-3.68,4.16l12.41-5.95l-7,9.65
	c0,0-8.94,3.61-16.71,16.99c2.19,0.74,4.39,1.47,6.6,2.18c0,0-2.09,5-2.41,8.59c-0.31,3.59,0.97,5.13,0.97,5.13
	s-6.93,6.58-11.05,11.53l71.69-12.48l-76.86,20.37c-0.22,0.46-0.26,0.62-0.26,0.62l0.19-0.6h0l0,0l6.5-20.04
	c0.96,0.04,1.88-0.55,2.2-1.51c0.55-1.64-0.89-2.53-0.86-2.61l-1.1-0.32c-0.98-0.07-1.93,0.53-2.26,1.51
	c-0.33,0.96,0.04,1.99,0.83,2.54l-7.21,20.47c0,0,0.42-0.96,0.84-6.62c0.41-5.66-1.77-19.31-1.77-19.31s1.95-0.44,3.88-3.49
	c1.93-3.05,3.3-8.29,3.3-8.29C39.29,71.74,40.94,72.31,42.59,72.88"/>
<rect x="-16.49" y="-15.54" class="st3" width="141.73" height="141.73"/>
</svg>
